<svg width="20" height="20" viewBox="0 0 20 20" fill="none" xmlns="http://www.w3.org/2000/svg">
<path d="M4 1V0H6V1H12V0H14V1H15.5C16.88 1 18 2.119 18 3.5V5.5H16V3.5C16 3.224 15.78 3 15.5 3H14V4H12V3H6V4H4V3H2.5C2.22 3 2 3.224 2 3.5V15.5C2 15.776 2.22 16 2.5 16H5.5V18H2.5C1.12 18 0 16.881 0 15.5V3.5C0 2.119 1.12 1 2.5 1H4ZM13.5 9C11.01 9 9 11.015 9 13.5C9 15.985 11.01 18 13.5 18C15.99 18 18 15.985 18 13.5C18 11.015 15.99 9 13.5 9ZM7 13.5C7 9.91 9.91 7 13.5 7C17.09 7 20 9.91 20 13.5C20 17.09 17.09 20 13.5 20C9.91 20 7 17.09 7 13.5ZM12.5 11H14.5V13.086L16.21 14.793L14.79 16.207L12.5 13.914V11Z" fill="#1D9BF0"/>
</svg>
