<svg width="24" height="24" viewBox="0 0 24 24" fill="none" xmlns="http://www.w3.org/2000/svg">
<path d="M16.6969 5.4999C15.4749 5.4399 14.0179 6.0099 12.8069 7.6599L12.0019 8.74991L11.1959 7.6599C9.98394 6.0099 8.52594 5.4399 7.30394 5.4999C6.06094 5.5699 4.95494 6.2799 4.39394 7.4099C3.84194 8.5299 3.76094 10.1899 4.87294 12.2299C5.94694 14.1999 8.12994 16.4999 12.0019 18.8399C15.8719 16.4999 18.0539 14.1999 19.1279 12.2299C20.2389 10.1899 20.1579 8.5299 19.6049 7.4099C19.0439 6.2799 17.9389 5.5699 16.6969 5.4999ZM20.8839 13.1899C19.5329 15.6699 16.8829 18.3099 12.5049 20.8599L12.0019 21.1599L11.4979 20.8599C7.11894 18.3099 4.46894 15.6699 3.11594 13.1899C1.75594 10.6899 1.70594 8.32991 2.60194 6.51991C3.48894 4.72991 5.24894 3.60991 7.20294 3.50991C8.85394 3.4199 10.5709 4.06991 12.0009 5.51991C13.4299 4.06991 15.1469 3.4199 16.7969 3.50991C18.7509 3.60991 20.5109 4.72991 21.3979 6.51991C22.2939 8.32991 22.2439 10.6899 20.8839 13.1899Z" fill="#5F6F7B"/>
</svg>
