<svg width="20" height="18" viewBox="0 0 20 18" fill="none" xmlns="http://www.w3.org/2000/svg">
<path d="M4 2C2.9 2 2 2.895 2 4C2 5.105 2.9 6 4 6C5.1 6 6 5.105 6 4C6 2.895 5.1 2 4 2ZM0 4C0 1.791 1.79 0 4 0C6.21 0 8 1.791 8 4C8 6.209 6.21 8 4 8C1.79 8 0 6.209 0 4ZM20 5H10V3H20V5ZM4 12C2.9 12 2 12.895 2 14C2 15.105 2.9 16 4 16C5.1 16 6 15.105 6 14C6 12.895 5.1 12 4 12ZM0 14C0 11.791 1.79 10 4 10C6.21 10 8 11.791 8 14C8 16.209 6.21 18 4 18C1.79 18 0 16.209 0 14ZM20 15H10V13H20V15ZM5 4C5 4.552 4.55 5 4 5C3.45 5 3 4.552 3 4C3 3.448 3.45 3 4 3C4.55 3 5 3.448 5 4Z" fill="#1D9BF0"/>
</svg>
