<svg width="24" height="24" viewBox="0 0 24 24" fill="none" xmlns="http://www.w3.org/2000/svg">
<path d="M4.49999 3.87988L8.93199 8.01988L7.56799 9.47988L5.49999 7.54988V15.9999C5.49999 17.0999 6.39599 17.9999 7.49999 17.9999H13V19.9999H7.49999C5.29099 19.9999 3.49999 18.2099 3.49999 15.9999V7.54988L1.43199 9.47988L0.0679932 8.01988L4.49999 3.87988ZM16.5 5.99988H11V3.99988H16.5C18.709 3.99988 20.5 5.78988 20.5 7.99988V16.4499L22.568 14.5199L23.932 15.9799L19.5 20.1199L15.068 15.9799L16.432 14.5199L18.5 16.4499V7.99988C18.5 6.89988 17.604 5.99988 16.5 5.99988Z" fill="#5F6F7B"/>
</svg>
