<svg width="22" height="22" viewBox="0 0 22 22" fill="none" xmlns="http://www.w3.org/2000/svg">
<path d="M7 8.5C7 7.119 7.672 6 8.5 6C9.328 6 10 7.119 10 8.5C10 9.881 9.328 11 8.5 11C7.672 11 7 9.881 7 8.5ZM13.5 11C14.328 11 15 9.881 15 8.5C15 7.119 14.328 6 13.5 6C12.672 6 12 7.119 12 8.5C12 9.881 12.672 11 13.5 11ZM11 15C8.776 15 7.979 12.773 7.949 12.684L6.052 13.317C6.102 13.467 7.323 17.001 11.001 17.001C14.679 17.001 15.899 13.468 15.95 13.317L14.054 12.679C14.021 12.774 13.224 15.001 11.001 15.001L11 15ZM21.25 10.999C21.25 16.651 16.652 21.249 11 21.249C5.348 21.249 0.75 16.652 0.75 11C0.75 5.348 5.348 0.75 11 0.75C16.652 0.75 21.25 5.348 21.25 11V10.999ZM19.25 10.999C19.25 6.45 15.549 2.749 11 2.749C6.451 2.749 2.75 6.451 2.75 11C2.75 15.549 6.451 19.25 11 19.25C15.549 19.25 19.25 15.549 19.25 11V10.999Z" fill="#1D9BF0"/>
</svg>
